# xmcd
#
# Track frame offsets:
#        150
#        26522
#        49391
#        72764
#        97076
#        127682
#        146807
#        166060
#        192509
#        216797
#        244731
#        277200
#        309321
#
# Disc length: 4450 seconds
#
# Revision: 0
# Processed by: cddbd v1.5.1PL2 Copyright (c) Steve Scherf et al.
# Submitted via: ExactAudioCopy v0.95a5
#
DISCID=c011600d
DTITLE=Various Artist - El concepto legitimo
DYEAR=2006
DGENRE=Trance
TTITLE0=GMS vs Dado Dino and Dimitri - D.D.D.'n' R.&.B
TTITLE1=Unknown Track
TTITLE2=Astrix - Closer to Heaven
TTITLE3=Dark by Design - Sinister
TTITLE4=Alphazone - Rockin (Original Mix)
TTITLE5=COSMIC GATE - EXPLORATION OF SPASE (EXTENDED MIX)
TTITLE6=steve hill vs Nervous - Tricky Tricky ''The official Black Mag
TTITLE6=ic Anthem'' Original Mix
TTITLE7=Alphazone - Flashback Original Mix)
TTITLE8=Yoji Biomehanika - HARDSTYLE DISCO (ORIGINAL MIX)
TTITLE9=DJ Kim - Jetlag (Alphazone Remix)
TTITLE10=Styles and Breeze - You're My Angel (Technikal Vocal Remix)
TTITLE11=Atmosphere - Storm (Alphazone Remix)
TTITLE12=Cloudchaser - Aerodynamic (Original Mix)
EXTD=
EXTT0=
EXTT1=
EXTT2=
EXTT3=
EXTT4=
EXTT5=
EXTT6=
EXTT7=
EXTT8=
EXTT9=
EXTT10=
EXTT11=
EXTT12=
PLAYORDER=
